# This file uses centimeters as units for non-parametric coordinates.

mtllib Cone.mtl
v 0.951057 -1.000000 -0.309017
v 0.809018 -1.000000 -0.587786
v 0.587786 -1.000000 -0.809017
v 0.309017 -1.000000 -0.951057
v 0.000000 -1.000000 -1.000000
v -0.309017 -1.000000 -0.951057
v -0.587785 -1.000000 -0.809017
v -0.809017 -1.000000 -0.587785
v -0.951057 -1.000000 -0.309017
v -1.000000 -1.000000 0.000000
v -0.951057 -1.000000 0.309017
v -0.809017 -1.000000 0.587785
v -0.587785 -1.000000 0.809017
v -0.309017 -1.000000 0.951057
v -0.000000 -1.000000 1.000000
v 0.309017 -1.000000 0.951057
v 0.587785 -1.000000 0.809017
v 0.809017 -1.000000 0.587785
v 0.951057 -1.000000 0.309017
v 1.000000 -1.000000 0.000000
v 0.000000 1.000000 0.000000
vt 0.975529 0.000000
vt 0.904509 0.000000
vt 0.500000 1.000000
vt 0.793893 0.000000
vt 0.654509 0.000000
vt 0.500000 0.000000
vt 0.345492 0.000000
vt 0.206107 0.000000
vt 0.095492 0.000000
vt 0.024472 0.000000
vt 0.000000 0.000000
vt 0.024472 0.000000
vt 0.095492 0.000000
vt 0.206107 0.000000
vt 0.345492 0.000000
vt 0.500000 0.000000
vt 0.654509 0.000000
vt 0.793893 0.000000
vt 0.904509 0.000000
vt 0.975528 0.000000
vt 1.000000 0.000000
vt 0.975529 0.654508
vt 1.000000 0.500000
vt 0.975528 0.345491
vt 0.904509 0.206107
vt 0.793893 0.095491
vt 0.654509 0.024472
vt 0.500000 -0.000000
vt 0.345492 0.024472
vt 0.206107 0.095491
vt 0.095492 0.206107
vt 0.024472 0.345491
vt 0.000000 0.500000
vt 0.024472 0.654508
vt 0.095492 0.793893
vt 0.206107 0.904508
vt 0.345492 0.975528
vt 0.500000 1.000000
vt 0.654509 0.975528
vt 0.793893 0.904509
vt 0.904509 0.793893
vn 0.000000 -1.000000 0.000000
vn 0.000000 -1.000000 0.000000
vn 0.000000 -1.000000 0.000000
vn 0.000000 -1.000000 0.000000
vn 0.000000 -1.000000 0.000000
vn 0.000000 -1.000000 0.000000
vn 0.000000 -1.000000 -0.000000
vn 0.000000 -1.000000 -0.000000
vn 0.000000 -1.000000 0.000000
vn 0.000000 -1.000000 0.000000
vn 0.000000 -1.000000 0.000000
vn 0.000000 -1.000000 0.000000
vn 0.000000 -1.000000 0.000000
vn 0.000000 -1.000000 0.000000
vn 0.000000 -1.000000 0.000000
vn 0.000000 -1.000000 0.000000
vn 0.000000 -1.000000 0.000000
vn 0.000000 -1.000000 0.000000
vn 0.000000 -1.000000 0.000000
vn 0.000000 -1.000000 0.000000
vn 0.850651 0.447214 -0.276392
vn 0.723607 0.447214 -0.525731
vn -0.000000 1.000000 -0.000001
vn 0.525731 0.447214 -0.723607
vn 0.276393 0.447214 -0.850651
vn -0.000000 0.447214 -0.894427
vn -0.276393 0.447214 -0.850651
vn -0.525731 0.447214 -0.723607
vn -0.723607 0.447214 -0.525731
vn -0.850651 0.447214 -0.276393
vn -0.894427 0.447214 0.000000
vn -0.850651 0.447214 0.276393
vn -0.723607 0.447214 0.525731
vn -0.525731 0.447214 0.723607
vn -0.276393 0.447214 0.850651
vn 0.000000 0.447214 0.894427
vn 0.276393 0.447214 0.850651
vn 0.525731 0.447214 0.723607
vn 0.723607 0.447214 0.525731
vn 0.850651 0.447214 0.276393
vn 0.894427 0.447214 0.000001
g pCone1
usemtl lambert2SG
f 1/22/1 20/23/2 2/41/3
f 20/23/2 19/24/4 2/41/3
f 19/24/4 18/25/5 2/41/3
f 18/25/5 17/26/6 2/41/3
f 17/26/6 16/27/7 2/41/3
f 16/27/7 15/28/8 2/41/3
f 15/28/8 14/29/9 2/41/3
f 14/29/9 13/30/10 2/41/3
f 13/30/10 12/31/11 2/41/3
f 12/31/11 11/32/12 2/41/3
f 11/32/12 10/33/13 2/41/3
f 10/33/13 9/34/14 2/41/3
f 9/34/14 8/35/15 2/41/3
f 8/35/15 7/36/16 2/41/3
f 7/36/16 6/37/17 2/41/3
f 6/37/17 5/38/18 2/41/3
f 5/38/18 4/39/19 2/41/3
f 4/39/19 3/40/20 2/41/3
f 1/1/21 2/2/22 21/3/23
f 2/2/22 3/4/24 21/3/23
f 3/4/24 4/5/25 21/3/23
f 4/5/25 5/6/26 21/3/23
f 5/6/26 6/7/27 21/3/23
f 6/7/27 7/8/28 21/3/23
f 7/8/28 8/9/29 21/3/23
f 8/9/29 9/10/30 21/3/23
f 9/10/30 10/11/31 21/3/23
f 10/11/31 11/12/32 21/3/23
f 11/12/32 12/13/33 21/3/23
f 12/13/33 13/14/34 21/3/23
f 13/14/34 14/15/35 21/3/23
f 14/15/35 15/16/36 21/3/23
f 15/16/36 16/17/37 21/3/23
f 16/17/37 17/18/38 21/3/23
f 17/18/38 18/19/39 21/3/23
f 18/19/39 19/20/40 21/3/23
f 19/20/40 20/21/41 21/3/23
f 20/21/41 1/1/21 21/3/23
