# This file uses centimeters as units for non-parametric coordinates.

mtllib QuestionBlock.mtl
v -0.500000 -0.500000 0.500000
v 0.500000 -0.500000 0.500000
v -0.500000 0.500000 0.500000
v 0.500000 0.500000 0.500000
v -0.500000 0.500000 -0.500000
v 0.500000 0.500000 -0.500000
v -0.500000 -0.500000 -0.500000
v 0.500000 -0.500000 -0.500000
vt 0.239990 0.330008
vt 0.470402 0.330008
vt 0.239990 0.661067
vt 0.470402 0.661067
vt 0.931225 0.661068
vt 0.470402 0.992127
vt 0.239990 -0.001052
vt 0.700814 0.330008
vt 0.700813 0.661068
vt 0.009579 0.330008
vt 0.009579 0.661067
vt 0.470402 -0.001052
vt 0.931225 0.330009
vt 0.239990 0.992127
vn 0.000000 0.000000 1.000000
vn 0.000000 0.000000 1.000000
vn 0.000000 0.000000 1.000000
vn 0.000000 0.000000 1.000000
vn 0.000000 1.000000 0.000000
vn 0.000000 1.000000 0.000000
vn 0.000000 1.000000 0.000000
vn 0.000000 1.000000 0.000000
vn 0.000000 0.000000 -1.000000
vn 0.000000 0.000000 -1.000000
vn 0.000000 0.000000 -1.000000
vn 0.000000 0.000000 -1.000000
vn 0.000000 -1.000000 0.000000
vn 0.000000 -1.000000 0.000000
vn 0.000000 -1.000000 0.000000
vn 0.000000 -1.000000 0.000000
vn 1.000000 0.000000 0.000000
vn 1.000000 0.000000 0.000000
vn 1.000000 0.000000 0.000000
vn 1.000000 0.000000 0.000000
vn -1.000000 0.000000 0.000000
vn -1.000000 0.000000 0.000000
vn -1.000000 0.000000 0.000000
vn -1.000000 0.000000 0.000000
g Cube
usemtl Question_SG
f 1/1/1 2/2/2 4/4/3 3/3/4
f 3/3/5 4/4/6 6/6/7 5/14/8
f 5/5/9 6/9/10 8/8/11 7/13/12
f 7/7/13 8/12/14 2/2/15 1/1/16
f 2/2/17 8/8/18 6/9/19 4/4/20
f 7/10/21 1/1/22 3/3/23 5/11/24
